<svg width="7" height="14" viewBox="0 0 7 14" fill="none" xmlns="http://www.w3.org/2000/svg">
<path d="M4.66635 7.67096H6.33291L6.99953 5.0028H4.66635V3.66872C4.66635 3.36633 4.67969 3.14843 4.70635 3.01503C4.75968 2.80157 4.87523 2.63704 5.05299 2.52142C5.26631 2.3969 5.58185 2.33465 5.9996 2.33465H6.99953V0.0933959C6.84843 0.0756085 6.60845 0.0578211 6.27958 0.0400328C5.87072 0.0133513 5.47519 1.04963e-05 5.09299 1.04963e-05C4.4797 1.04963e-05 3.93974 0.122302 3.4731 0.366882C3.00647 0.611463 2.64871 0.960547 2.39984 1.41413C2.13319 1.9033 1.99987 2.47695 1.99987 3.13509V5.0028H0V7.67096H1.99987V13.3408H4.66635V7.67096Z" fill="white"/>
</svg>
