<svg width="14" height="14" viewBox="0 0 14 14" fill="none" xmlns="http://www.w3.org/2000/svg">
<path d="M0.741536 3.85001C1.12396 3.09401 1.63231 2.42434 2.26658 1.84101C2.90085 1.25768 3.61907 0.807344 4.42123 0.490011C5.24205 0.163344 6.10018 1.10149e-05 6.99562 1.10149e-05C7.91904 1.10149e-05 8.78184 0.163344 9.584 0.490011C10.3582 0.798011 11.0577 1.24134 11.6827 1.82001L9.66795 3.83601C9.30417 3.49068 8.8961 3.22934 8.44371 3.05201C7.99133 2.87468 7.50863 2.78601 6.99562 2.78601C6.39866 2.78601 5.82968 2.91201 5.28869 3.16401C4.77568 3.40668 4.32563 3.74734 3.93853 4.18601C3.55144 4.62467 3.26462 5.11934 3.07807 5.67001C2.93816 6.10867 2.8682 6.55201 2.8682 7.00001C2.8682 7.44801 2.93816 7.89134 3.07807 8.33C3.26462 8.88067 3.55144 9.37534 3.93853 9.814C4.32563 10.2527 4.77568 10.5933 5.28869 10.836C5.82968 11.088 6.39866 11.214 6.99562 11.214C7.90971 11.214 8.69789 10.99 9.36014 10.542C9.73324 10.2993 10.0387 9.996 10.2766 9.632C10.5144 9.268 10.6753 8.86667 10.7593 8.428H6.99562V5.72601H13.5855C13.6694 6.19267 13.7114 6.66867 13.7114 7.15401C13.7114 8.20867 13.5319 9.177 13.1728 10.059C12.8136 10.941 12.2983 11.69 11.6267 12.306C11.0391 12.8473 10.3582 13.2627 9.584 13.552C8.79116 13.8507 7.92837 14 6.99562 14C6.10018 14 5.24205 13.8367 4.42123 13.51C3.61907 13.1927 2.90085 12.7423 2.26658 12.159C1.63231 11.5757 1.12396 10.906 0.741536 10.15C0.247179 9.16067 0 8.11067 0 7.00001C0 5.88934 0.247179 4.83934 0.741536 3.85001Z" fill="white"/>
</svg>
