<svg width="14" height="13" viewBox="0 0 14 13" fill="none" xmlns="http://www.w3.org/2000/svg">
<path d="M11.8109 4.74866L11.6376 5.13549C11.602 5.22441 11.5421 5.28444 11.4576 5.31556C11.3732 5.34669 11.2888 5.34669 11.2044 5.31556C11.1199 5.28444 11.0599 5.22441 11.0244 5.13549L10.8511 4.74866C10.7089 4.41963 10.5089 4.12395 10.2512 3.86162C9.99349 3.59929 9.70022 3.39698 9.3714 3.2547L8.86484 3.02794C8.77597 2.99237 8.71598 2.93012 8.68487 2.84119C8.65377 2.75227 8.65377 2.66334 8.68487 2.57442C8.71598 2.48549 8.77597 2.42324 8.86484 2.38767L9.34474 2.17425C9.68244 2.02307 9.98238 1.8141 10.2446 1.54732C10.5067 1.28054 10.7089 0.973746 10.8511 0.626934L11.0111 0.213427C11.0555 0.124501 11.1199 0.0622533 11.2044 0.0266826C11.2888 -0.00888815 11.3732 -0.00888815 11.4576 0.0266826C11.5421 0.0622533 11.6065 0.124501 11.6509 0.213427L11.8109 0.626934C11.9531 0.973746 12.1553 1.28054 12.4174 1.54732C12.6796 1.8141 12.9795 2.02307 13.3172 2.17425L13.7971 2.38767C13.886 2.42324 13.946 2.48549 13.9771 2.57442C14.0082 2.66334 14.0082 2.75227 13.9771 2.84119C13.946 2.93012 13.886 2.99237 13.7971 3.02794L13.2906 3.2547C12.9618 3.39698 12.6685 3.59929 12.4108 3.86162C12.153 4.12395 11.9531 4.41963 11.8109 4.74866ZM2.66612 2.00084C2.42617 2.00084 2.20399 2.06087 1.99959 2.18092C1.79518 2.30097 1.633 2.46326 1.51302 2.66779C1.39305 2.87232 1.33306 3.09463 1.33306 3.33473V10.0042C1.33306 10.2443 1.39305 10.4666 1.51302 10.6711C1.633 10.8757 1.79518 11.038 1.99959 11.158C2.20399 11.2781 2.42617 11.3381 2.66612 11.3381H10.6645C10.9044 11.3381 11.1266 11.2781 11.331 11.158C11.5354 11.038 11.6976 10.8757 11.8176 10.6711C11.9375 10.4666 11.9975 10.2443 11.9975 10.0042V6.66946H13.3306V10.0042C13.3306 10.4844 13.2106 10.929 12.9707 11.3381C12.7307 11.7471 12.4063 12.0717 11.9975 12.3118C11.5887 12.5519 11.1444 12.672 10.6645 12.672H2.66612C2.18622 12.672 1.74186 12.5519 1.33306 12.3118C0.924254 12.0717 0.599876 11.7471 0.359926 11.3381C0.119975 10.929 0 10.4844 0 10.0042V3.33473C0 2.85453 0.119975 2.4099 0.359926 2.00084C0.599876 1.59178 0.924254 1.2672 1.33306 1.0271C1.74186 0.787001 2.18622 0.666951 2.66612 0.666951H7.33182V2.00084H2.66612Z" fill="#374151"/>
</svg>
